# xmcd CD database file
#
# Track frame offsets:
#	187
#	14627
#	32782
#	45807
#	64765
#	80627
#	100712
#	119130
#	132105
#	145715
#	183675
#
# Disc length: 2492 seconds
#
# Revision: 1
# Processed by: cddbd v1.5.2PL0 Copyright (c) Steve Scherf et al.
# Submitted via: CDex 1.51
#
DISCID=9609ba0b
DTITLE=MOAHNI MOAHNA - WHY
DYEAR=1997
DGENRE=Heavy Metal
TTITLE0=Tales Of Xet Sof
TTITLE1=They Were Never Even Meant To Be
TTITLE2=King Kong Song
TTITLE3=The Melter Of Ice
TTITLE4=Radio's To Blame
TTITLE5=Don't Try This At Home !
TTITLE6=The Past
TTITLE7=Bring Us Back
TTITLE8=I've Lost It All
TTITLE9=Angtoria
TTITLE10=Why
EXTD=YEAR: 1997
EXTT0=
EXTT1=
EXTT2=
EXTT3=
EXTT4=
EXTT5=
EXTT6=
EXTT7=
EXTT8=
EXTT9=
EXTT10=
PLAYORDER=
